#N canvas -1067 -988 1079 957 12;
#X msg 234 304 disconnect;
#X floatatom 226 419 2 0 0 0 - - -, f 2;
#X floatatom 243 334 0 0 0 0 - - -;
#X obj 293 419 print backward;
#X text 301 186 UDP \, FUDI;
#X msg 226 207 connect localhost 8000;
#X obj 226 392 netsend;
#X msg 416 58 send D01.01-83-75-7D-11-07-FB-07-D2-04-07-00-1D-02-10-03-73-00-8B-01-CA-03-D3-02-80-00-21-01-30-10-06-00-00-00-00-00-02-6C-00-00
, f 79;
#X msg 371 257 send x 1 y 2 z 3;
#X connect 0 0 6 0;
#X connect 2 0 7 0;
#X connect 5 0 6 0;
#X connect 6 0 1 0;
#X connect 6 1 3 0;
#X connect 7 0 6 0;
#X connect 8 0 6 0;
