#N canvas -1087 -328 1079 957 12;
#X obj 270 556 netreceive 8050;
#X floatatom 371 617 2 0 0 0 - - -, f 2;
#X obj 265 668 list split 1, f 6;
#X floatatom 265 729 5 0 0 0 - - -, f 5;
#X obj 326 670 list split 1, f 6;
#X floatatom 326 731 5 0 0 0 - - -, f 5;
#X obj 387 672 list split 1, f 6;
#X floatatom 387 733 5 0 0 0 - - -, f 5;
#X obj 448 674 list split 1, f 6;
#X floatatom 448 735 5 0 0 0 - - -, f 5;
#X obj 509 676 list split 1, f 6;
#X floatatom 509 737 5 0 0 0 - - -, f 5;
#X obj 570 678 list split 1, f 6;
#X floatatom 570 739 5 0 0 0 - - -, f 5;
#X obj 631 680 list split 1, f 6;
#X floatatom 631 741 5 0 0 0 - - -, f 5;
#X obj 692 682 list split 1, f 6;
#X floatatom 692 745 5 0 0 0 - - -, f 5;
#X obj 756 679 list split 1, f 6;
#X floatatom 756 740 5 0 0 0 - - -, f 5;
#X text 264 763 EEG_L;
#X text 329 764 EEG_R;
#X text 388 766 ACC_x;
#X text 453 767 ACC_y;
#X text 508 765 ACC_z;
#X text 560 769 Body_Temp;
#X text 635 771 Batt_V;
#X text 694 773 Noise;
#X text 759 774 Light;
#X text 262 792 Scaled;
#X text 329 794 Scaled;
#X text 390 792 Scaled;
#X text 457 794 Scaled;
#X text 516 797 Scaled;
#X text 573 795 Scaled;
#X text 636 798 Scaled;
#X text 695 800 RAW;
#X text 754 801 RAW;
#X obj 205 854 realtime;
#X obj 166 806 t b b;
#X obj 191 896 print;
#X connect 0 0 2 0;
#X connect 0 0 39 0;
#X connect 0 1 1 0;
#X connect 2 0 3 0;
#X connect 2 1 4 0;
#X connect 4 0 5 0;
#X connect 4 1 6 0;
#X connect 6 0 7 0;
#X connect 6 1 8 0;
#X connect 8 0 9 0;
#X connect 8 1 10 0;
#X connect 10 0 11 0;
#X connect 10 1 12 0;
#X connect 12 0 13 0;
#X connect 12 1 14 0;
#X connect 14 0 15 0;
#X connect 14 1 16 0;
#X connect 16 0 17 0;
#X connect 16 1 18 0;
#X connect 18 0 19 0;
#X connect 38 0 40 0;
#X connect 39 0 38 0;
#X connect 39 1 38 1;
