#N canvas -8 46 1079 957 12;
#X obj 270 556 netreceive 8050;
#X floatatom 371 617 2 0 0 0 - - - 0;
#X listbox 265 729 6 0 0 0 - - - 0;
#X obj 265 668 list split 1, f 6;
#X obj 321 668 list split 1, f 6;
#X listbox 321 729 6 0 0 0 - - - 0;
#X obj 378 667 list split 1, f 6;
#X listbox 378 759 8 0 0 0 - - - 0;
#X listbox 442 758 8 0 0 0 - - - 0;
#X obj 442 666 list split 1, f 6;
#X obj 507 665 list split 1, f 6;
#X listbox 507 761 8 0 0 0 - - - 0;
#X obj 571 663 list split 1, f 6;
#X listbox 571 762 8 0 0 0 - - - 0;
#X obj 632 664 list split 1, f 6;
#X listbox 632 762 8 0 0 0 - - - 0;
#X obj 695 664 list split 1, f 23;
#X listbox 695 762 8 0 0 0 - - - 0;
#X listbox 774 764 8 0 0 0 - - - 0;
#X connect 0 0 3 0;
#X connect 0 1 1 0;
#X connect 3 0 2 0;
#X connect 3 1 4 0;
#X connect 4 0 5 0;
#X connect 4 1 6 0;
#X connect 6 0 7 0;
#X connect 6 1 9 0;
#X connect 9 0 8 0;
#X connect 9 1 10 0;
#X connect 10 0 11 0;
#X connect 10 1 12 0;
#X connect 12 0 13 0;
#X connect 12 1 14 0;
#X connect 14 0 15 0;
#X connect 14 1 16 0;
#X connect 16 0 17 0;
#X connect 16 1 18 0;
