#N canvas 1 789 1018 708 12;
#X msg 234 304 disconnect;
#X floatatom 226 419 2 0 0 0 - - - 0;
#X floatatom 243 334 0 0 0 0 - - - 0;
#X obj 293 419 print backward;
#X text 301 186 UDP \, FUDI;
#X msg 226 207 connect localhost 8000;
#X obj 226 392 netsend;
#X obj 706 484 print backward;
#X obj 564 396 netreceive 8050;
#X obj 502 466 print tcp, f 31;
#X floatatom 716 423 2 0 0 0 - - - 0;
#X floatatom 592 626 0 0 0 0 - - - 0;
#X msg 416 58 send D01.01-83-75-7D-11-07-FB-07-D2-04-07-00-1D-02-10-03-73-00-8B-01-CA-03-D3-02-80-00-21-01-30-10-06-00-00-00-00-00-02-6C-00-00
, f 79;
#X msg 371 257 send x 1 y 2 z 3;
#X obj 622 611 print;
#X obj 592 558 list split, f 35;
#X obj 719 615 print;
#X obj 825 615 print;
#X connect 0 0 6 0;
#X connect 2 0 12 0;
#X connect 5 0 6 0;
#X connect 6 0 1 0;
#X connect 6 1 3 0;
#X connect 8 0 9 0;
#X connect 8 0 15 0;
#X connect 8 1 7 0;
#X connect 8 1 10 0;
#X connect 12 0 6 0;
#X connect 13 0 6 0;
#X connect 15 0 11 0;
#X connect 15 0 14 0;
#X connect 15 1 16 0;
#X connect 15 2 17 0;
